<?xml version="1.0" encoding="UTF-8"?>
<svg id="Calque_1" xmlns="http://www.w3.org/2000/svg" version="1.1" viewBox="0 0 118.8 121.25">
  <!-- Generator: Adobe Illustrator 29.5.1, SVG Export Plug-In . SVG Version: 2.1.0 Build 141)  -->
  <path d="M10.96,105.05c-4.98-5.29-9.56-16.48-8.9-23.77,1.62-17.84,33.06-33.76,46.33-43.32,10.08-7.26,20.15-16.27,27.32-26.47.99-1.41,5.1-8.8,5.55-9.07,2.79-1.69,13.02,2.28,15.9,3.93,3.59,2.07,6.7,3.74,6.24,8.29-2.56,25.16-46.77,43.06-65.02,56.72-11.47,8.59-22.43,20.11-27.42,33.69Z"/>
  <path d="M114.78,28.13c.48,3.7,1.63,7.36,1.89,11.1.4,5.74.77,21.06-1.62,25.74-2.86,5.59-13.08,11.19-18.52,14.51-17.28,10.57-39.25,19.09-45.97,40.14-9.34.15-18.81.88-27.24-3.79.29-4.93,2.78-9.89,5.4-14.05,20.54-32.69,67.73-39.03,85.09-72.98.25-.49-.25-.89.98-.67Z"/>
  <path d="M64.29,2.18C51.86,27.75,22.39,35.05,2.95,53.38l-.94-.48v-15.1C2,21.79,20.4,2.18,36.69,2.18h27.6Z"/>
  <path d="M65.71,119.67c2.07-5.58,7.87-10.21,12.59-13.6,11.93-8.56,26.08-14.28,38.13-22.74-.28,15.59-12.36,30.25-27.03,34.79-1.02.31-5.33,1.55-6,1.55h-17.7Z"/>
</svg>