<?xml version="1.0" encoding="UTF-8"?>
<svg id="Calque_1" xmlns="http://www.w3.org/2000/svg" version="1.1" viewBox="0 0 546.14 179.95">
  <!-- Generator: Adobe Illustrator 29.5.1, SVG Export Plug-In . SVG Version: 2.1.0 Build 141)  -->
  <path d="M37.26,132.14c-4.98-5.29-9.56-16.48-8.9-23.77,1.62-17.84,33.06-33.76,46.33-43.32,10.08-7.26,20.15-16.27,27.32-26.47.99-1.41,5.1-8.8,5.55-9.07,2.79-1.69,13.02,2.28,15.9,3.93,3.59,2.07,6.7,3.74,6.24,8.29-2.56,25.16-46.77,43.06-65.02,56.72-11.47,8.59-22.43,20.11-27.42,33.69Z"/>
  <path d="M141.07,55.23c.48,3.7,1.63,7.36,1.89,11.1.4,5.74.77,21.06-1.62,25.74-2.86,5.59-13.08,11.19-18.52,14.51-17.28,10.57-39.25,19.09-45.97,40.14-9.34.15-18.81.88-27.24-3.79.29-4.93,2.78-9.89,5.4-14.05,20.54-32.69,67.73-39.03,85.09-72.98.25-.49-.25-.89.98-.67Z"/>
  <path d="M90.59,29.28c-12.43,25.57-41.9,32.88-61.34,51.2l-.94-.48v-15.1c0-16.02,18.4-35.63,34.68-35.63h27.6Z"/>
  <path d="M92,146.77c2.07-5.58,7.87-10.21,12.59-13.6,11.93-8.56,26.08-14.28,38.13-22.74-.28,15.59-12.36,30.25-27.03,34.79-1.02.31-5.33,1.55-6,1.55h-17.7Z"/>
  <g>
    <path d="M175.86,139.03v-2.95l51.56-90.26h-27.48c-3.05,0-5.52.74-7.39,2.22-1.87,1.48-3.5,3.55-4.88,6.2l-6.2,11.67h-3.99l1.03-24.52h71.94v2.95l-51.56,90.26h31.47c3.05,0,5.47-.76,7.24-2.29,1.77-1.53,3.35-3.67,4.73-6.43l6.06-11.38h3.99l-1.03,24.52h-75.49Z"/>
    <path d="M258.73,139.03v-2.81l2.22-.59c1.97-.59,3.3-1.48,3.99-2.66.69-1.18,1.08-2.76,1.18-4.73v-35.68c0-2.61-.05-5.29-.15-8.05,0-1.97-.37-3.52-1.11-4.65-.74-1.13-2.09-1.9-4.06-2.29l-2.07-.44v-2.66l25.85-8.57,1.77,1.62-.44,20.98v39.89c0,1.97.37,3.55,1.11,4.73.74,1.18,2.04,2.07,3.92,2.66l1.62.44v2.81h-33.83ZM275.72,57.78c-3.25,0-6.01-1.03-8.27-3.1-2.27-2.07-3.4-4.68-3.4-7.83s1.13-5.88,3.4-7.9c2.26-2.02,5.02-3.03,8.27-3.03s6.01,1.01,8.27,3.03c2.26,2.02,3.4,4.65,3.4,7.9s-1.13,5.76-3.4,7.83c-2.27,2.07-5.02,3.1-8.27,3.1Z"/>
    <path d="M323.59,140.95l-24.23-1.92v-2.81l1.48-.3c3.84-.89,5.76-3.35,5.76-7.39V51.72c0-1.97-.37-3.5-1.11-4.58-.74-1.08-2.09-1.87-4.06-2.36l-1.92-.44v-2.66l25.26-6.35,1.92,1.33-.59,20.83v15.51c6.99-4.73,14.53-7.09,22.6-7.09s15.12,3.03,20.53,9.09c5.42,6.06,8.12,15.39,8.12,27.99,0,8.37-1.38,15.39-4.14,21.05-2.76,5.66-6.45,9.92-11.08,12.78-4.63,2.85-9.75,4.28-15.36,4.28-3.74,0-7.46-.49-11.15-1.48s-6.97-2.51-9.82-4.58l-2.22,5.91ZM339.84,134.6c3.25,0,6.11-.93,8.57-2.81,2.46-1.87,4.38-5.07,5.76-9.6,1.38-4.53,2.07-10.73,2.07-18.61s-.64-14.03-1.92-18.47c-1.28-4.43-3.13-7.53-5.54-9.31-2.41-1.77-5.29-2.66-8.64-2.66-4.43,0-8.96,1.28-13.59,3.84v53.92c4.04,2.46,8.47,3.69,13.3,3.69Z"/>
    <path d="M384.15,139.03v-2.81l2.22-.74c1.97-.49,3.32-1.33,4.06-2.51.74-1.18,1.11-2.76,1.11-4.73v-43.29c-.1-2.17-.49-3.82-1.18-4.95-.69-1.13-2.02-1.9-3.99-2.29l-2.22-.59v-2.66l24.08-8.57,1.77,1.62,1.33,13v1.03c1.48-2.76,3.35-5.32,5.61-7.68,2.26-2.36,4.73-4.28,7.39-5.76,2.66-1.48,5.32-2.22,7.98-2.22,3.74,0,6.55.99,8.42,2.95,1.87,1.97,2.81,4.48,2.81,7.53,0,3.35-.94,5.89-2.81,7.61-1.87,1.72-4.14,2.59-6.8,2.59-3.94,0-7.34-1.77-10.19-5.32l-.3-.3c-.99-1.18-2.09-1.85-3.32-1.99-1.23-.15-2.44.47-3.62,1.85-.99.99-1.9,2.14-2.73,3.47-.84,1.33-1.6,2.88-2.29,4.65v38.71c0,1.87.39,3.42,1.18,4.65.79,1.23,2.12,2.09,3.99,2.59l4.43,1.33v2.81h-36.93Z"/>
    <path d="M466.89,141.1c-5.61,0-10.37-1.6-14.26-4.8-3.89-3.2-5.83-7.8-5.83-13.81,0-4.73,2.29-9.09,6.87-13.07s11.79-6.92,21.64-8.79c1.67-.39,3.62-.76,5.84-1.11,2.22-.34,4.41-.71,6.57-1.11v-10.49c0-6.7-.84-11.32-2.51-13.89-1.68-2.56-4.33-3.84-7.98-3.84h-.44c-2.27,0-4.06.72-5.39,2.14-1.33,1.43-2.19,3.77-2.59,7.02l-.44,1.92c-.3,3.94-1.33,6.82-3.1,8.64-1.77,1.82-3.99,2.73-6.65,2.73-2.46,0-4.51-.76-6.13-2.29-1.62-1.53-2.44-3.52-2.44-5.98,0-4.04,1.38-7.44,4.14-10.19s6.43-4.82,11.01-6.21c4.58-1.38,9.53-2.07,14.85-2.07,8.76,0,15.46,2.12,20.09,6.35,4.63,4.24,6.94,11.13,6.94,20.68v32.94c0,4.24,2.02,6.35,6.06,6.35h3.4l1.48,1.62c-1.77,2.27-3.74,4.01-5.91,5.24-2.17,1.23-5.12,1.85-8.86,1.85-4.24,0-7.61-1.01-10.12-3.03-2.51-2.02-4.16-4.7-4.95-8.05-3.15,3.35-6.26,6.06-9.31,8.12-3.05,2.07-7.04,3.1-11.97,3.1ZM475.45,131.64c1.97,0,3.84-.44,5.61-1.33,1.77-.89,3.99-2.36,6.65-4.43v-23.64c-2.56.4-5.17.89-7.83,1.48-4.24.99-7.66,2.81-10.27,5.47-2.61,2.66-3.92,6.26-3.92,10.78,0,3.94.91,6.87,2.73,8.79,1.82,1.92,4.16,2.88,7.02,2.88Z"/>
  </g>
</svg>